<svg width="171" height="83" viewBox="0 0 171 83" fill="none" xmlns="http://www.w3.org/2000/svg">
<g filter="url(#filter0_d_1_13)">
<path fill-rule="evenodd" clip-rule="evenodd" d="M166.128 46.072C165.312 48.18 163.544 51.307 160.213 52.327C158.309 52.871 154.229 52.871 153.345 52.803C150.013 52.803 147.018 50.419 145.369 48.275C144.073 50.426 142.038 52.502 139.202 53.483C138.998 53.619 138.794 53.687 138.59 53.755C138.726 56.067 138.93 58.039 138.93 59.195C138.93 65.586 135.055 71.977 130.567 71.977C128.187 71.977 125.876 69.666 125.876 66.062C125.876 61.098 130.363 55.727 136.007 52.939C135.735 47.568 135.123 42.06 135.123 37.777C135.123 32.133 136.143 25.334 137.842 25.334C138.658 25.334 139.882 26.15 139.882 27.034C139.882 27.986 137.842 35.057 137.842 40.836C137.842 44.032 138.114 48.248 138.454 51.919C141.432 50.569 143.259 48.551 144.403 46.758C144.166 46.273 144.03 45.845 144.03 45.528C144.03 44.712 144.642 44.304 144.914 44.304C145.05 44.304 145.254 44.304 145.458 44.44C147.022 41.312 148.858 36.281 149.81 33.153C149.538 32.677 149.402 32.133 149.402 31.657C149.402 29.278 151.374 24.79 152.801 24.79C153.617 24.79 154.501 25.674 154.501 26.558C154.501 27.782 152.325 29.822 152.325 31.725C152.325 34.241 160.961 38.185 160.961 45.868C160.961 47.908 159.805 49.812 158.173 51.035C158.989 51.035 159.805 50.899 160.349 50.695C163.272 49.268 164.768 46.208 165.856 43.284C166.128 42.468 166.332 42.128 166.468 42.128C166.672 42.128 166.672 42.604 166.672 43.216C166.672 44.032 166.468 45.188 166.128 46.072ZM136.143 54.911C130.703 57.767 127.915 62.254 127.915 65.994C127.915 68.714 129.207 69.666 130.635 69.666C133.695 69.666 136.211 65.314 136.211 58.039C136.211 57.019 136.143 55.931 136.143 54.911ZM150.83 34.717C149.946 37.777 148.314 42.876 146.478 46.48C147.09 47.772 148.994 50.016 153.005 50.016C155.725 50.016 157.629 48.316 157.629 45.528C157.629 41.176 153.209 37.709 150.83 34.717ZM138.59 21.866C137.366 21.866 136.279 20.982 136.279 19.963C136.279 18.875 137.366 17.991 138.59 17.991C139.882 17.991 140.97 18.875 140.97 19.963C140.97 20.982 139.882 21.866 138.59 21.866ZM127.438 53.823C125.943 53.823 124.787 52.803 124.787 51.511C124.787 50.287 125.943 49.2 127.438 49.2C128.866 49.2 130.09 50.287 130.09 51.511C130.09 52.803 128.866 53.823 127.438 53.823ZM112.424 52.883C108.139 52.883 104.407 49.748 102.627 42.778C102.342 43.454 102.027 44.188 101.688 44.963C100.192 48.395 97.2 52.179 92.624 53.763C92.36 53.939 92.096 54.027 91.832 54.115C92.008 57.107 92.272 59.659 92.272 61.155C92.272 69.427 87.256 77.699 81.448 77.699C78.369 77.699 75.377 74.707 75.377 70.043C75.377 63.619 81.184 56.667 88.488 53.059C88.4 50.947 88.224 48.747 88.048 46.547C87.432 48.219 85.584 53.059 81.536 53.059C78.099 53.059 75.503 50.399 74.05 45.398C72.641 48.355 69.721 52.795 66.665 52.795C62.529 52.795 60.417 47.955 59.361 44.083H59.097C57.953 47.427 55.753 52.619 51.793 52.619C48.626 52.619 44.49 49.011 44.49 39.684C44.49 30.356 49.77 17.596 56.809 17.596C58.921 17.596 61.121 19.18 61.649 23.668C62.441 24.46 63.145 25.604 63.145 26.132C63.145 27.012 62.089 33.7 62.089 37.748C62.089 43.556 64.113 49.627 67.105 49.627C69.577 49.627 71.926 46.025 73.413 42.638C72.973 40.223 72.737 37.419 72.737 34.228C72.737 26.924 72.737 21.732 75.289 21.732C77.753 21.732 77.049 23.756 77.049 28.508C77.049 45.579 78.193 49.891 82.064 49.891C86.464 49.891 88.136 39.156 88.136 34.756C88.136 32.204 87.696 24.988 88.048 22.788C88.488 19.356 89.192 17.332 90.688 17.332C91.744 17.332 92.8 18.212 92.8 19.884C92.8 25.34 90.864 29.652 90.864 35.46C90.864 42.324 91.216 46.987 91.656 51.739C99.224 48.307 101.072 41.532 101.688 40.212C101.79 39.974 101.884 39.739 101.974 39.51C101.677 37.473 101.512 35.194 101.512 32.644C101.512 27.452 101.688 22.876 101.952 19.092C101.16 19.18 100.544 19.18 100.192 19.18C96.233 19.18 93.681 18.828 93.681 17.42C93.681 15.66 96.145 16.804 98.785 16.804C99.928 16.804 101.072 16.804 102.128 16.716C102.48 12.492 102.832 9.589 103.008 8.269C103.36 5.717 103.536 2.901 105.296 2.901C106 2.901 107.144 3.517 107.144 5.629C107.144 6.685 106.616 11.084 106.176 16.364C111.544 15.572 115.328 14.252 118.496 14.252C119.992 14.252 120.784 14.604 120.784 15.484C120.784 16.98 112.16 18.212 106 18.74C105.56 23.404 105.208 28.244 105.208 31.764C105.208 39.948 106.616 49.979 112.512 49.979C117.44 49.979 119.728 43.82 121.136 40.3C121.488 39.508 121.664 38.804 121.928 38.804C122.28 38.804 122.368 39.332 122.368 39.772C122.368 40.124 122.104 42.06 121.664 43.556C120.52 46.987 117.088 52.883 112.424 52.883ZM57.513 20.06C53.817 20.06 48.362 29.124 48.362 39.596C48.362 45.315 50.122 49.539 52.409 49.539C56.193 49.539 59.361 34.14 59.361 24.548C59.361 24.02 59.537 23.316 59.977 22.964C59.801 21.204 59.273 20.06 57.513 20.06ZM88.664 55.611C81.624 59.307 78.017 65.115 78.017 69.955C78.017 73.475 79.689 74.707 81.536 74.707C85.496 74.707 88.752 69.075 88.752 59.659C88.752 58.339 88.664 56.931 88.664 55.611ZM44.402 55.812C44.402 65.315 35.074 72.971 23.194 72.971C12.81 72.971 4.539 64.875 4.539 54.844C4.539 52.292 4.979 50.356 5.683 50.356C6.915 50.356 6.387 51.5 6.387 53.436C6.387 62.324 13.866 69.363 23.282 69.363C31.554 69.363 40.442 63.556 40.442 54.756C40.442 39.18 6.915 40.236 6.915 25.717C6.915 17.445 21.346 7.941 32.258 7.941C37.626 7.941 42.466 11.197 42.466 16.301C42.466 22.989 38.858 30.908 36.13 30.908C35.25 30.908 34.37 30.292 34.37 29.061C34.37 24.397 40.354 22.461 40.354 17.005C40.354 13.573 37.626 10.669 33.402 10.669C23.282 10.669 10.435 21.405 10.435 26.509C10.435 37.772 44.402 37.42 44.402 55.812Z" fill="url(#paint0_linear_1_13)"/>
</g>
<defs>
<filter id="filter0_d_1_13" x="-1.5" y="0" width="174" height="86.5" filterUnits="userSpaceOnUse" color-interpolation-filters="sRGB">
<feFlood flood-opacity="0" result="BackgroundImageFix"/>
<feColorMatrix in="SourceAlpha" type="matrix" values="0 0 0 0 0 0 0 0 0 0 0 0 0 0 0 0 0 0 127 0" result="hardAlpha"/>
<feOffset dy="2"/>
<feGaussianBlur stdDeviation="0.75"/>
<feComposite in2="hardAlpha" operator="out"/>
<feColorMatrix type="matrix" values="0 0 0 0 0 0 0 0 0 0 0 0 0 0 0 0 0 0 0.13 0"/>
<feBlend mode="normal" in2="BackgroundImageFix" result="effect1_dropShadow_1_13"/>
<feBlend mode="normal" in="SourceGraphic" in2="effect1_dropShadow_1_13" result="shape"/>
</filter>
<linearGradient id="paint0_linear_1_13" x1="161" y1="67" x2="13.5" y2="9" gradientUnits="userSpaceOnUse">
<stop stop-color="#4891EA"/>
<stop offset="1" stop-color="#9889F2"/>
</linearGradient>
</defs>
</svg>
